<?xml version="1.0" standalone="no"?>
<!DOCTYPE svg PUBLIC "-//W3C//DTD SVG 20010904//EN"
 "http://www.w3.org/TR/2001/REC-SVG-20010904/DTD/svg10.dtd">
<svg version="1.0" xmlns="http://www.w3.org/2000/svg"
 width="180.000000pt" height="180.000000pt" viewBox="0 0 180.000000 180.000000"
 preserveAspectRatio="xMidYMid meet">
<metadata>
Created by potrace 1.11, written by Peter Selinger 2001-2013
</metadata>
<g transform="translate(0.000000,180.000000) scale(0.100000,-0.100000)"
fill="#000000" stroke="none">
<path d="M599 1796 c-2 -2 -31 -7 -64 -10 -33 -4 -67 -9 -75 -11 -8 -2 -42 -7
-75 -10 -33 -3 -87 -10 -120 -15 -33 -5 -89 -12 -125 -16 -36 -4 -74 -8 -85
-10 -11 -1 -28 -3 -37 -3 -17 -1 -18 -43 -18 -746 0 -757 0 -752 34 -746 4 1
13 -3 20 -8 6 -5 25 -11 41 -14 17 -3 62 -15 100 -27 63 -19 110 -33 155 -44
8 -3 56 -16 105 -31 50 -15 119 -35 155 -45 36 -10 80 -23 98 -28 17 -6 32 -9
32 -6 0 2 13 -2 28 -10 36 -18 56 -16 237 28 83 20 158 39 169 41 10 2 55 13
100 24 44 11 92 23 106 25 14 3 81 19 150 36 131 33 145 36 198 46 26 5 36 14
52 52 20 44 20 63 18 729 l-3 685 -110 45 c-123 51 -118 50 -435 57 -118 3
-312 8 -431 11 -118 3 -217 3 -220 1z"/>
</g>
</svg>
